<mxfile host="app.diagrams.net" agent="Mozilla/5.0 (Windows NT 10.0; Win64; x64) AppleWebKit/537.36 (KHTML, like Gecko) Chrome/131.0.0.0 Safari/537.36" version="25.0.1">
  <diagram name="Page-1" id="VWmbDMlJW6y3AWK-7zkR">
    <mxGraphModel dx="4339" dy="2020" grid="1" gridSize="10" guides="1" tooltips="1" connect="1" arrows="1" fold="1" page="1" pageScale="1" pageWidth="850" pageHeight="1100" math="0" shadow="0">
      <root>
        <mxCell id="0" />
        <mxCell id="1" parent="0" />
        <mxCell id="LqMRVM4barxtAKbFlxxy-1" value="Administrator" style="shape=umlActor;verticalLabelPosition=bottom;verticalAlign=top;html=1;outlineConnect=0;" vertex="1" parent="1">
          <mxGeometry x="1150" y="460" width="30" height="60" as="geometry" />
        </mxCell>
        <mxCell id="LqMRVM4barxtAKbFlxxy-2" value="Customer&lt;div&gt;&lt;br&gt;&lt;/div&gt;" style="shape=umlActor;verticalLabelPosition=bottom;verticalAlign=top;html=1;outlineConnect=0;" vertex="1" parent="1">
          <mxGeometry x="-320" y="490" width="30" height="60" as="geometry" />
        </mxCell>
        <mxCell id="LqMRVM4barxtAKbFlxxy-3" value="" style="swimlane;startSize=0;" vertex="1" parent="1">
          <mxGeometry x="200" y="80" width="810" height="850" as="geometry" />
        </mxCell>
        <mxCell id="LqMRVM4barxtAKbFlxxy-8" value="Place Orders" style="ellipse;whiteSpace=wrap;html=1;" vertex="1" parent="LqMRVM4barxtAKbFlxxy-3">
          <mxGeometry x="50" y="210" width="120" height="80" as="geometry" />
        </mxCell>
        <mxCell id="LqMRVM4barxtAKbFlxxy-9" value="Make Payments" style="ellipse;whiteSpace=wrap;html=1;" vertex="1" parent="LqMRVM4barxtAKbFlxxy-3">
          <mxGeometry x="40" y="350" width="120" height="80" as="geometry" />
        </mxCell>
        <mxCell id="LqMRVM4barxtAKbFlxxy-10" value="Track Orders" style="ellipse;whiteSpace=wrap;html=1;" vertex="1" parent="LqMRVM4barxtAKbFlxxy-3">
          <mxGeometry x="50" y="500" width="120" height="80" as="geometry" />
        </mxCell>
        <mxCell id="LqMRVM4barxtAKbFlxxy-11" value="Browse Products" style="ellipse;whiteSpace=wrap;html=1;" vertex="1" parent="LqMRVM4barxtAKbFlxxy-3">
          <mxGeometry x="50" y="70" width="120" height="80" as="geometry" />
        </mxCell>
        <mxCell id="LqMRVM4barxtAKbFlxxy-12" value="Write Reviews" style="ellipse;whiteSpace=wrap;html=1;" vertex="1" parent="LqMRVM4barxtAKbFlxxy-3">
          <mxGeometry x="50" y="610" width="120" height="80" as="geometry" />
        </mxCell>
        <mxCell id="LqMRVM4barxtAKbFlxxy-14" value="Manage Inventory&amp;nbsp;" style="ellipse;whiteSpace=wrap;html=1;" vertex="1" parent="LqMRVM4barxtAKbFlxxy-3">
          <mxGeometry x="590" y="190" width="120" height="80" as="geometry" />
        </mxCell>
        <mxCell id="LqMRVM4barxtAKbFlxxy-15" value="Manage User Accounts" style="ellipse;whiteSpace=wrap;html=1;" vertex="1" parent="LqMRVM4barxtAKbFlxxy-3">
          <mxGeometry x="590" y="385" width="120" height="80" as="geometry" />
        </mxCell>
        <mxCell id="LqMRVM4barxtAKbFlxxy-16" value="View Reports" style="ellipse;whiteSpace=wrap;html=1;" vertex="1" parent="LqMRVM4barxtAKbFlxxy-3">
          <mxGeometry x="600" y="570" width="120" height="80" as="geometry" />
        </mxCell>
        <mxCell id="LqMRVM4barxtAKbFlxxy-23" value="" style="endArrow=none;html=1;rounded=0;exitX=0.5;exitY=0.5;exitDx=0;exitDy=0;exitPerimeter=0;" edge="1" parent="LqMRVM4barxtAKbFlxxy-3" source="LqMRVM4barxtAKbFlxxy-2">
          <mxGeometry width="50" height="50" relative="1" as="geometry">
            <mxPoint y="590" as="sourcePoint" />
            <mxPoint x="50" y="540" as="targetPoint" />
          </mxGeometry>
        </mxCell>
        <mxCell id="LqMRVM4barxtAKbFlxxy-25" value="" style="endArrow=none;html=1;rounded=0;" edge="1" parent="LqMRVM4barxtAKbFlxxy-3" source="LqMRVM4barxtAKbFlxxy-2">
          <mxGeometry width="50" height="50" relative="1" as="geometry">
            <mxPoint y="690" as="sourcePoint" />
            <mxPoint x="50" y="640" as="targetPoint" />
          </mxGeometry>
        </mxCell>
        <mxCell id="LqMRVM4barxtAKbFlxxy-27" value="" style="endArrow=none;html=1;rounded=0;exitX=0.5;exitY=0.5;exitDx=0;exitDy=0;exitPerimeter=0;" edge="1" parent="LqMRVM4barxtAKbFlxxy-3" source="LqMRVM4barxtAKbFlxxy-2">
          <mxGeometry width="50" height="50" relative="1" as="geometry">
            <mxPoint y="150" as="sourcePoint" />
            <mxPoint x="50" y="100" as="targetPoint" />
          </mxGeometry>
        </mxCell>
        <mxCell id="LqMRVM4barxtAKbFlxxy-29" value="" style="endArrow=none;html=1;rounded=0;entryX=0.5;entryY=0.5;entryDx=0;entryDy=0;entryPerimeter=0;" edge="1" parent="LqMRVM4barxtAKbFlxxy-3" target="LqMRVM4barxtAKbFlxxy-1">
          <mxGeometry width="50" height="50" relative="1" as="geometry">
            <mxPoint x="700" y="250" as="sourcePoint" />
            <mxPoint x="750" y="200" as="targetPoint" />
          </mxGeometry>
        </mxCell>
        <mxCell id="LqMRVM4barxtAKbFlxxy-31" value="" style="endArrow=none;html=1;rounded=0;entryX=0.5;entryY=0.5;entryDx=0;entryDy=0;entryPerimeter=0;" edge="1" parent="LqMRVM4barxtAKbFlxxy-3" target="LqMRVM4barxtAKbFlxxy-1">
          <mxGeometry width="50" height="50" relative="1" as="geometry">
            <mxPoint x="710" y="430" as="sourcePoint" />
            <mxPoint x="760" y="380" as="targetPoint" />
          </mxGeometry>
        </mxCell>
        <mxCell id="LqMRVM4barxtAKbFlxxy-37" value="" style="endArrow=none;html=1;rounded=0;entryX=0.5;entryY=0.5;entryDx=0;entryDy=0;entryPerimeter=0;" edge="1" parent="LqMRVM4barxtAKbFlxxy-3" target="LqMRVM4barxtAKbFlxxy-1">
          <mxGeometry width="50" height="50" relative="1" as="geometry">
            <mxPoint x="710" y="590" as="sourcePoint" />
            <mxPoint x="760" y="540" as="targetPoint" />
          </mxGeometry>
        </mxCell>
        <mxCell id="LqMRVM4barxtAKbFlxxy-39" value="Process Payments" style="ellipse;whiteSpace=wrap;html=1;" vertex="1" parent="LqMRVM4barxtAKbFlxxy-3">
          <mxGeometry x="370" y="70" width="120" height="80" as="geometry" />
        </mxCell>
        <mxCell id="LqMRVM4barxtAKbFlxxy-41" value="" style="endArrow=none;html=1;rounded=0;entryX=0.5;entryY=0.5;entryDx=0;entryDy=0;entryPerimeter=0;" edge="1" parent="LqMRVM4barxtAKbFlxxy-3" target="LqMRVM4barxtAKbFlxxy-38">
          <mxGeometry width="50" height="50" relative="1" as="geometry">
            <mxPoint x="490" y="110" as="sourcePoint" />
            <mxPoint x="540" y="60" as="targetPoint" />
          </mxGeometry>
        </mxCell>
        <mxCell id="LqMRVM4barxtAKbFlxxy-19" value="" style="endArrow=none;html=1;rounded=0;entryX=0.093;entryY=0.838;entryDx=0;entryDy=0;entryPerimeter=0;" edge="1" parent="1" source="LqMRVM4barxtAKbFlxxy-2" target="LqMRVM4barxtAKbFlxxy-8">
          <mxGeometry width="50" height="50" relative="1" as="geometry">
            <mxPoint x="-120" y="510" as="sourcePoint" />
            <mxPoint x="140" y="420" as="targetPoint" />
          </mxGeometry>
        </mxCell>
        <mxCell id="LqMRVM4barxtAKbFlxxy-20" value="" style="endArrow=none;html=1;rounded=0;exitX=0.5;exitY=0.5;exitDx=0;exitDy=0;exitPerimeter=0;" edge="1" parent="1" source="LqMRVM4barxtAKbFlxxy-2" target="LqMRVM4barxtAKbFlxxy-9">
          <mxGeometry width="50" height="50" relative="1" as="geometry">
            <mxPoint x="110" y="490" as="sourcePoint" />
            <mxPoint x="160" y="440" as="targetPoint" />
          </mxGeometry>
        </mxCell>
        <mxCell id="LqMRVM4barxtAKbFlxxy-38" value="Payment Gateway" style="shape=umlActor;verticalLabelPosition=bottom;verticalAlign=top;html=1;outlineConnect=0;" vertex="1" parent="1">
          <mxGeometry x="1130" y="150" width="30" height="60" as="geometry" />
        </mxCell>
      </root>
    </mxGraphModel>
  </diagram>
</mxfile>
